<svg width="53" height="100" viewBox="0 0 53 100" fill="none" xmlns="http://www.w3.org/2000/svg">
<path d="M44.7222 85C38.2222 96 41.7222 92.5 25.7222 99.5041C10.7222 92 18.7222 96.5 6.72217 85C12.7222 83.5 26.2222 92 26.2222 60C26.2222 92 35.2222 82.5 44.7222 85Z" fill="#F1F1F2"/>
<path d="M33.2222 31.5C33.2222 34.8137 29.0359 38.5 25.7222 38.5C22.4085 38.5 18.7222 35.3137 18.7222 32C18.7222 28.6863 22.4085 26.5 25.7222 26.5C29.0359 26.5 33.2222 28.1863 33.2222 31.5Z" fill="#F1F1F2"/>
<path d="M26.0845 56.3607C26.1309 56.3162 26.177 56.2721 26.2229 56.2282C26.2587 56.2625 26.2946 56.2969 26.3308 56.3314C27.6528 57.5958 29.2114 59.0866 30.9163 60.7885C35.4319 65.2964 40.5598 70.8869 43.89 76.3518C47.4416 82.1801 47.8135 85.9457 46.5577 88.1496C45.9059 89.2934 44.4515 90.7692 41.1436 92.1069C37.8615 93.4341 33.048 94.499 26.1996 94.9894C19.2856 94.5573 14.4244 93.5325 11.1096 92.2314C7.76695 90.9194 6.30939 89.4575 5.66147 88.3355C4.415 86.1771 4.76831 82.4252 8.36309 76.5456C11.7255 71.0461 16.9021 65.4068 21.4579 60.8588C23.1781 59.1415 24.751 57.6365 26.0845 56.3607ZM26.2066 41.9083C26.1011 41.8121 25.994 41.7145 25.8854 41.6156C24.5741 40.4211 23.0431 39.0264 21.3675 37.436C16.8088 33.1091 11.65 27.765 8.30609 22.5508C4.71565 16.9522 4.47664 13.5455 5.6229 11.6286C6.25191 10.5767 7.70649 9.14464 11.089 7.83422C14.4295 6.5401 19.3149 5.50118 26.2434 5.01052C33.1719 5.44248 38.0544 6.43993 41.3899 7.70389C44.7671 8.98362 46.2078 10.3965 46.8273 11.4273C47.9624 13.3158 47.7336 16.7268 44.1317 22.3737C40.7837 27.6227 35.6203 33.0148 31.0609 37.381C29.3847 38.9861 27.853 40.3945 26.5417 41.6002C26.4283 41.7044 26.3166 41.8071 26.2066 41.9083Z" stroke="#020206" stroke-width="10"/>
</svg>
